# xmcd
#
# Track frame offsets:
#	150
#	9247
#	54582
#	104057
#	152147
#	199160
#	247835
#	275722
#	309027
#	320955
#	328797
#
# Disc length: 4408 seconds
#
# Revision: 1
# Processed by: cddbd v1.5.1PL0 Copyright (c) Steve Scherf et al.
# Submitted via: CDex 1.50Beta5
#
DISCID=9811360b
DTITLE=池澤春菜 - 超機動伝説 ダイナギガ
DYEAR=1998
DGENRE=
TTITLE0=池澤春菜/太陽と月を抱きしめて
TTITLE1=麻績村まゆ子/はじめましてな私
TTITLE2=麻績村まゆ子/テストな私たち
TTITLE3=麻績村まゆ子/アブないあの子
TTITLE4=麻績村まゆ子/ひとり上手な私
TTITLE5=麻績村まゆ子/迷子な二人
TTITLE6=麻績村まゆ子/チキチキな人たち1
TTITLE7=麻績村まゆ子/チキチキな人たち2
TTITLE8=麻績村まゆ子/チキチキな人たち3
TTITLE9=麻績村まゆ子/チキチキな人たち4
TTITLE10=麻績村まゆ子/チキチキな人たち5
EXTD=
EXTT0=
EXTT1=
EXTT2=
EXTT3=
EXTT4=
EXTT5=
EXTT6=
EXTT7=
EXTT8=
EXTT9=
EXTT10=
PLAYORDER=
